<svg id="Layer_1" data-name="Layer 1" xmlns="http://www.w3.org/2000/svg" viewBox="0 0 247.64 247.64"><defs><style>.cls-1{fill:#414042;}.cls-2{fill:none;}</style></defs><path class="cls-1" d="M986.37,472.67,979.16,485l-17.31,29.55-20.94,35.76-18.12,30.93c-2.93,5-6.06,9.95-8.82,15.06,0,.07-.09.14-.13.22a1.25,1.25,0,0,0,2.16,1.26l7.21-12.3,17.3-29.55,21-35.76,18.12-30.93c2.93-5,6.06-10,8.82-15.07a2.39,2.39,0,0,1,.13-.21,1.25,1.25,0,0,0-2.16-1.26Z" transform="translate(-878.65 -411.39)"/><path class="cls-1" d="M915.25,547l24.47-7.17,39-11.44,9-2.63a1.26,1.26,0,0,0-.66-2.42l-24.48,7.17-39,11.44-9,2.64a1.25,1.25,0,0,0,.67,2.41Z" transform="translate(-878.65 -411.39)"/><path class="cls-1" d="M986.56,523.71l-7.18,7.18L962,548.24l-20.91,20.91L923,587.31l-6,6a27.2,27.2,0,0,0-2.84,2.84l-.12.12,2.13.89V545.83l-.36.89,7.18-7.19,17.35-17.35,20.92-20.92,18.16-18.16,6-6a26.08,26.08,0,0,0,2.83-2.83,1.59,1.59,0,0,1,.13-.13l-2.13-.88v51.29a1.25,1.25,0,0,0,2.5,0V473.3a1.27,1.27,0,0,0-2.14-.89l-15.1,15.11-30.6,30.6-24,24c-1,1-3.13,2.44-3.18,4-.12,4.49,0,9,0,13.49v37.47a1.26,1.26,0,0,0,2.13.88l7.19-7.18,17.35-17.35,20.91-20.91,18.16-18.16c2.91-2.91,6.08-5.7,8.79-8.8l.13-.13A1.25,1.25,0,0,0,986.56,523.71Z" transform="translate(-878.65 -411.39)"/><path class="cls-1" d="M915.8,572.36l7.19-7.19,17.35-17.35,20.91-20.91,18.16-18.16c2.91-2.91,6.08-5.7,8.8-8.8l.12-.12a1.25,1.25,0,0,0-1.76-1.77l-7.19,7.18L962,522.59l-20.91,20.92L923,561.66c-2.91,2.91-6.08,5.71-8.8,8.8l-.13.13a1.25,1.25,0,0,0,1.77,1.77Z" transform="translate(-878.65 -411.39)"/><path class="cls-1" d="M952.43,560.86v-51.3a1.25,1.25,0,0,0-2.5,0v51.3a1.25,1.25,0,0,0,2.5,0Z" transform="translate(-878.65 -411.39)"/><path class="cls-1" d="M1063.76,549.16l-12.31,7.2-29.55,17.31-35.76,21-30.93,18.11c-5,2.94-10.15,5.73-15.06,8.83l-.22.12a1.25,1.25,0,0,0,1.27,2.16l12.3-7.2,29.55-17.31,35.76-21,30.93-18.12c5-2.93,10.15-5.72,15.06-8.82l.22-.13a1.25,1.25,0,0,0-1.26-2.15Z" transform="translate(-878.65 -411.39)"/><path class="cls-1" d="M993.06,623.1l7.16-24.48,11.44-39,2.64-9a1.25,1.25,0,0,0-2.41-.67l-7.17,24.48-11.44,39-2.63,9a1.25,1.25,0,0,0,2.41.66Z" transform="translate(-878.65 -411.39)"/><path class="cls-1" d="M1012.21,549.35l-7.19,7.19-17.34,17.34L966.76,594.8,948.6,613c-2.91,2.91-6.08,5.7-8.79,8.79l-.13.13a1.26,1.26,0,0,0,.88,2.13h49.35c.9,0,2.1.21,2.85-.39a16.46,16.46,0,0,0,1.38-1.39l21.71-21.7,31-31c6.05-6,12.23-12,18.17-18.17l.27-.27a1.27,1.27,0,0,0-.88-2.14h-51.3a1.25,1.25,0,0,0,0,2.5h51.3l-.89-2.13-7.18,7.19L1039,573.89l-20.92,20.91L999.89,613l-6,6a25.39,25.39,0,0,0-2.84,2.84.74.74,0,0,1-.12.13l.88-.37H940.56l.89,2.14,7.18-7.19L966,599.11l20.91-20.91L1005.05,560c2.91-2.91,6.08-5.7,8.8-8.79a.8.8,0,0,1,.13-.13A1.25,1.25,0,0,0,1012.21,549.35Z" transform="translate(-878.65 -411.39)"/><path class="cls-1" d="M976.81,587.75h51.31a1.25,1.25,0,0,0,0-2.5H976.81a1.25,1.25,0,0,0,0,2.5Z" transform="translate(-878.65 -411.39)"/><path class="cls-1" d="M967.07,623.67l7.18-7.19,17.36-17.35,20.92-20.92L1030.69,560c2.91-2.91,6.08-5.7,8.8-8.79l.13-.13a1.25,1.25,0,0,0-1.77-1.77l-7.19,7.19-17.35,17.35-20.92,20.92L974.23,613c-2.91,2.91-6.09,5.71-8.8,8.8a1.59,1.59,0,0,1-.13.13,1.25,1.25,0,0,0,1.77,1.77Z" transform="translate(-878.65 -411.39)"/><path class="cls-1" d="M1048.48,437.92l17.31,17.31,27.62,27.62,6.36,6.36a1.25,1.25,0,0,0,1.77-1.77l-17.31-17.31-27.62-27.62-6.36-6.36a1.25,1.25,0,0,0-1.77,1.77Z" transform="translate(-878.65 -411.39)"/><path class="cls-1" d="M1099.78,436.15l-17.31,17.31-27.62,27.61-6.37,6.37a1.25,1.25,0,0,0,1.77,1.76l17.31-17.31,27.62-27.61,6.37-6.37a1.25,1.25,0,0,0-1.77-1.76Z" transform="translate(-878.65 -411.39)"/><path class="cls-1" d="M1050.61,488.32V437l-1.25,1.25h51.31l-1.25-1.25v51.29l1.25-1.25h-51.31a1.25,1.25,0,0,0,0,2.5h51.31a1.27,1.27,0,0,0,1.25-1.25V437a1.27,1.27,0,0,0-1.25-1.25h-51.31a1.27,1.27,0,0,0-1.25,1.25v51.29A1.25,1.25,0,0,0,1050.61,488.32Z" transform="translate(-878.65 -411.39)"/><path class="cls-1" d="M1049.36,463.93h51.31a1.25,1.25,0,0,0,0-2.5h-51.31a1.25,1.25,0,0,0,0,2.5Z" transform="translate(-878.65 -411.39)"/><path class="cls-1" d="M1073.74,437.09v51.23a1.25,1.25,0,0,0,2.5,0V437.09a1.25,1.25,0,0,0-2.5,0Z" transform="translate(-878.65 -411.39)"/><rect class="cls-2" width="247.64" height="247.64"/></svg>